<svg xmlns="http://www.w3.org/2000/svg" viewBox="0 0 120 120" fill="none">
  <defs>
    <linearGradient id="grad" x1="0" y1="0" x2="1" y2="1">
      <stop offset="0%" stop-color="#6366f1" />
      <stop offset="100%" stop-color="#06b6d4" />
    </linearGradient>
    <linearGradient id="fold" x1="0" y1="0" x2="1" y2="1">
      <stop offset="0%" stop-color="#4f46e5" />
      <stop offset="100%" stop-color="#0891b2" />
    </linearGradient>
  </defs>

  <!-- Rounded square background -->
  <rect x="8" y="8" width="104" height="104" rx="24" fill="url(#grad)" />

  <!-- Document body -->
  <path d="M38 28h26l20 20v44a4 4 0 0 1-4 4H38a4 4 0 0 1-4-4V32a4 4 0 0 1 4-4z" fill="white" opacity="0.95" />

  <!-- Folded corner -->
  <path d="M64 28v16a4 4 0 0 0 4 4h16z" fill="white" opacity="0.55" />

  <!-- Text lines on document -->
  <rect x="42" y="56" width="28" height="3" rx="1.5" fill="url(#grad)" opacity="0.5" />
  <rect x="42" y="64" width="22" height="3" rx="1.5" fill="url(#grad)" opacity="0.35" />
  <rect x="42" y="72" width="26" height="3" rx="1.5" fill="url(#grad)" opacity="0.25" />

  <!-- Small discovery dot / compass indicator -->
  <circle cx="82" cy="82" r="14" fill="white" opacity="0.2" />
  <circle cx="82" cy="82" r="8" fill="white" opacity="0.35" />
  <circle cx="82" cy="82" r="3.5" fill="white" />
</svg>
